<?xml version="1.0" encoding="UTF-8" standalone="no"?>
<!DOCTYPE svg PUBLIC "-//W3C//DTD SVG 1.1//EN" "http://www.w3.org/Graphics/SVG/1.1/DTD/svg11.dtd">
<svg width="100%" height="100%" viewBox="0 0 193 1265" version="1.1" xmlns="http://www.w3.org/2000/svg" xmlns:xlink="http://www.w3.org/1999/xlink" xml:space="preserve" xmlns:serif="http://www.serif.com/" style="fill-rule:evenodd;clip-rule:evenodd;stroke-linejoin:round;stroke-miterlimit:2;">
    <g transform="matrix(1,0,0,1,-250.814,-253.412)">
        <path d="M341.663,1517.89C291.045,1515.06 250.814,1473.06 250.814,1421.74C250.814,1389.5 266.688,1360.94 291.039,1343.46L293.437,308.305C293.507,277.938 318.218,253.341 348.585,253.412C378.952,253.482 403.548,278.193 403.478,308.56L401.084,1341.98C426.628,1359.31 443.426,1388.58 443.426,1421.74C443.426,1474.89 400.273,1518.05 347.12,1518.05C346.866,1518.05 346.613,1518.05 346.36,1518.04C346.125,1518.05 345.89,1518.05 345.655,1518.05C344.313,1518.04 342.982,1517.99 341.663,1517.89Z"/>
    </g>
</svg>
